<svg xmlns="http://www.w3.org/2000/svg" viewBox="0 0 55.54 59"><defs><style>.cls-1{fill:#191919;}</style></defs><title>fingerprint</title><g id="Слой_2" data-name="Слой 2"><g id="Capa_1" data-name="Capa 1"><path class="cls-1" d="M27.36,26a1,1,0,0,0-.69,1.24c0,.09,2.7,9.59,2,30.68a1,1,0,0,0,1,1h0a1,1,0,0,0,1-1c.75-21.41-1.92-30.92-2-31.31A1,1,0,0,0,27.36,26Z"/><path class="cls-1" d="M52.5,16.48A27,27,0,0,0,17.24,2.08a32.21,32.21,0,0,0-5.15,2.71,1,1,0,0,0-.3,1.38,1,1,0,0,0,1.39.29A30.64,30.64,0,0,1,18,3.93,25,25,0,0,1,50.66,17.26c1.63,3.85,2.51,11,2.89,14.84a1,1,0,0,0,1,.9h.1a1,1,0,0,0,.9-1.09C55.06,27,54.15,20.37,52.5,16.48Z"/><path class="cls-1" d="M9.12,9.71a1,1,0,1,0-1.4-1.42C2.34,13.59-3,23.44,2,40.28a1,1,0,1,0,1.92-.57C.17,27.13,2,16.76,9.12,9.71Z"/><path class="cls-1" d="M28.4,6a20.77,20.77,0,0,0-8.85,1.61A21,21,0,0,0,7.42,32.7a25.54,25.54,0,0,1,.75,3.19c.35,2.45.37,7,.37,14.11a1,1,0,0,0,2,0c0-7.46,0-11.81-.39-14.4a28.88,28.88,0,0,0-.8-3.44A19,19,0,0,1,28.33,8c7.11.26,15.17,6.52,17.6,13.69C48,27.9,48.06,38.46,47.79,48a1,1,0,0,0,2,.06c.27-9.69.24-20.48-2-27C45.11,13.05,36.4,6.3,28.4,6Z"/><path class="cls-1" d="M27.63,12a15,15,0,0,0-3.21.35,1,1,0,1,0,.43,2,13,13,0,0,1,14.76,7.63c2.43,5.74,2.58,15,2,31a1,1,0,0,0,1,1h0a1,1,0,0,0,1-1c.59-16.72.41-25.75-2.18-31.88A15,15,0,0,0,27.63,12Z"/><path class="cls-1" d="M20.21,16.34a1,1,0,0,0,.24-1.4,1,1,0,0,0-1.39-.24C13.91,18.32,11.67,25.26,13.49,32a78.46,78.46,0,0,1,2,19,1,1,0,0,0,2,0c0-11.81-2-19.23-2.12-19.54C13.82,25.55,15.74,19.47,20.21,16.34Z"/><path class="cls-1" d="M37.54,48a1,1,0,0,0-1-1h0a1,1,0,0,0-1,1c0,.75,0,1.85.05,3,0,1.72.08,3.68,0,4.94a1,1,0,0,0,1,1h0a1,1,0,0,0,1-1c0-1.31,0-3.3,0-5.05C37.56,49.82,37.54,48.74,37.54,48Z"/><path class="cls-1" d="M27.63,19a8,8,0,0,0-3.08.62,8.13,8.13,0,0,0-4.4,10.21c.76,2.29,1.39,14.27,1.39,26.17a1,1,0,0,0,2,0c0-10.71-.57-24-1.49-26.79A6,6,0,0,1,27.63,21a6,6,0,0,1,5.53,3.67C35,29.09,35.59,37.09,35.72,43a1,1,0,0,0,1,1h0a1,1,0,0,0,1-1C37.58,36.87,37,28.6,35,23.88A8,8,0,0,0,27.63,19Z"/></g></g></svg>