<?xml version="1.0" encoding="utf-8"?>
<!-- Generator: Adobe Illustrator 23.0.3, SVG Export Plug-In . SVG Version: 6.00 Build 0)  -->
<svg version="1.1" id="Слой_1" xmlns="http://www.w3.org/2000/svg" xmlns:xlink="http://www.w3.org/1999/xlink" x="0px" y="0px"
	 viewBox="0 0 174.6 178" style="enable-background:new 0 0 174.6 178;" xml:space="preserve">
<style type="text/css">
	.st0{fill:#191919;}
</style>
<path class="st0" d="M104.5,23.3c-7-3.3-9.5-5.9-9-6.8L103,0.4c0.4-1,5.4-0.4,11.1,2.3s9.4,6.1,8.9,7l-7.5,16.1
	C115.1,26.8,111.5,26.6,104.5,23.3z"/>
<path class="st0" d="M73.4,90.2c-5.9-2.8-9.2-6.4-8.8-7.3l28.8-61.7c0.1-0.1,0.2-0.1,0.3-0.1c0,0,0.1,0,0.1,0.1
	c0.9,1.1,4.8,3.8,9.1,5.8s8.8,3.4,10.3,3.3c0.1,0,0.2,0.1,0.3,0.2c0,0,0,0.1,0,0.1L84.6,92.2C84.2,93.1,78.8,92.7,73.4,90.2z"/>
<path class="st0" d="M64.2,113.9l17-15.5c0.9-0.8,1.8-1.7,0.6-2.3c-3.5,0-7-0.9-10.1-2.4c-6.1-2.9-8.3-6.2-8.3-6.2
	c-1.2-0.7-1.3,0.7-1.3,1.9l-0.9,23c0,1,0.8,1.9,1.8,1.9C63.3,114.4,63.8,114.3,64.2,113.9z"/>
<path class="st0" d="M59.9,116.5c-0.1-0.1-0.2-0.2-0.3-0.1c0,0-0.1,0.1-0.1,0.1l-0.9,3.1c-0.1,0.5,0.2,1,0.7,1.1
	c0.3,0.1,0.7-0.1,0.9-0.3l1.8-2.6c0.1-0.1,0.1-0.2,0-0.3c-0.1,0-0.1-0.1-0.2,0C61,117.6,60.3,117.2,59.9,116.5z"/>
<path class="st0" d="M5.9,139.3l82.9,30.2c2.3,0.8,3.5,3.4,2.6,5.7l0,0c-0.8,2.3-3.4,3.5-5.7,2.6L2.9,147.6
	c-2.3-0.8-3.5-3.4-2.6-5.7l0,0C1.1,139.6,3.6,138.4,5.9,139.3z"/>
<path class="st0" d="M171.7,147.6l-82.9,30.2c-2.3,0.8-4.8-0.3-5.7-2.6l0,0c-0.8-2.3,0.3-4.8,2.6-5.7l82.9-30.2
	c2.3-0.8,4.8,0.3,5.7,2.6l0,0C175.2,144.2,174,146.7,171.7,147.6z"/>
<path class="st0" d="M86.3,164.4L9.9,136.6c-2.1-0.8-3.8-1.4-3.1-3.5l1.6-3.9c1-2.2,1.5-2.9,4.6-3.6c4.1-0.8,26.9,0.2,43.4,6.1
	c15.8,5.7,35,21.3,35,23.8v6.5C90.7,164.1,88.4,165.2,86.3,164.4C86.3,164.4,86.3,164.4,86.3,164.4z"/>
<path class="st0" d="M89,164.4l76.3-27.8c2.1-0.8,3.8-1.4,3-3.5l-1.6-3.9c-1-2.2-1.5-2.9-4.6-3.6c-4.1-0.8-26.9,0.2-43.4,6.1
	c-15.8,5.7-34.9,21.3-34.9,23.8v6.5C84.5,164.1,86.9,165.2,89,164.4C89,164.4,89,164.4,89,164.4z"/>
</svg>
