<?xml version="1.0" encoding="utf-8"?>
<!-- Generator: Adobe Illustrator 24.0.2, SVG Export Plug-In . SVG Version: 6.00 Build 0)  -->
<svg version="1.1" id="Слой_1" xmlns="http://www.w3.org/2000/svg" xmlns:xlink="http://www.w3.org/1999/xlink" x="0px" y="0px"
	 viewBox="0 0 474 332.5" style="enable-background:new 0 0 474 332.5;" xml:space="preserve">
<style type="text/css">
	.st0{fill:#FF5600;}
</style>
<title>mail</title>
<g id="Слой_2_1_">
	<g id="Layer_1">
		<path class="st0" d="M474,7c0-0.1,0-0.1,0-0.2c0-0.1,0-0.3,0-0.4c0-0.6-0.2-1.1-0.3-1.6c0-0.1,0-0.2,0-0.2s0-0.1,0-0.1
			c-0.2-0.6-0.5-1.1-0.9-1.6c-0.1-0.1-0.2-0.2-0.3-0.3c-0.4-0.4-0.8-0.8-1.2-1.2L471,1.2c-0.5-0.3-1.1-0.6-1.6-0.8L469,0.3
			c-0.6-0.2-1.3-0.3-2-0.3H7C6.4,0,5.7,0.1,5.1,0.3L4.7,0.4C4.1,0.6,3.5,0.9,3,1.2c0,0-0.1,0.1-0.1,0.1C2.4,1.7,2,2.1,1.7,2.5
			L1.4,2.8C1,3.3,0.7,3.9,0.5,4.5c0,0,0,0.1,0,0.1s0,0.2,0,0.2C0.3,5.3,0.1,5.8,0.1,6.4c0,0.1,0,0.3,0,0.4S0,6.9,0,7v318.4
			c0,0.1,0,0.2,0,0.3c0,0.3,0,0.5,0.1,0.8s0.1,0.4,0.1,0.6c0.1,0.2,0.1,0.5,0.2,0.7c0.1,0.2,0.1,0.4,0.2,0.6
			c0.1,0.2,0.2,0.5,0.4,0.7l0.3,0.5c0.2,0.2,0.3,0.4,0.5,0.6l0.4,0.4c0.1,0.1,0.2,0.2,0.2,0.3s0.1,0.1,0.2,0.1
			c0.5,0.4,1.2,0.8,1.8,1c0.1,0.1,0.3,0.1,0.4,0.1c0.6,0.2,1.3,0.3,2,0.3c0,0,0.1,0,0.1,0h460c0,0,0.1,0,0.1,0c0.7,0,1.4-0.1,2-0.3
			c0.1,0,0.3-0.1,0.4-0.1c0.6-0.2,1.3-0.6,1.8-1c0.1,0,0.1-0.1,0.2-0.1s0.1-0.2,0.2-0.3c0.1-0.1,0.3-0.3,0.4-0.4
			c0.2-0.2,0.3-0.4,0.5-0.6l0.3-0.5c0.1-0.2,0.3-0.5,0.4-0.7c0.1-0.2,0.2-0.4,0.2-0.6c0.1-0.2,0.2-0.5,0.2-0.7
			c0-0.2,0.1-0.4,0.1-0.6s0.1-0.5,0.1-0.8s0-0.2,0-0.3L474,7z M164.2,151.5l68.2,58.7c2.6,2.3,6.5,2.3,9.1,0l68.2-58.7l142.1,167
			H22.1L164.2,151.5z M14,306.4V22.2l139.6,120.1L14,306.4z M320.4,142.4L460,22.2v284.2L320.4,142.4z M448.1,14l-142,122.2
			l-0.1,0.1l-0.1,0.1l-69,59.3l-69-59.3c0,0-0.1-0.1-0.1-0.1l-0.1-0.1L25.9,14H448.1z"/>
	</g>
</g>
</svg>
