<svg xmlns="http://www.w3.org/2000/svg" viewBox="0 0 463.01 463.01"><defs><style>.cls-1{fill:#191919;}</style></defs><title>Телефон</title><g id="Слой_2" data-name="Слой 2"><g id="Слой_1-2" data-name="Слой 1"><path class="cls-1" d="M462.69,381.09a35.51,35.51,0,0,0-17.62-26.32L330.85,289a35.85,35.85,0,0,0-43.16,5.71l-22.5,22.5a16.49,16.49,0,0,1-22,1.23,647.75,647.75,0,0,1-51.9-46.69,647.75,647.75,0,0,1-46.69-51.9,16.49,16.49,0,0,1,1.23-22l22.5-22.5A35.84,35.84,0,0,0,174,132.16L108.24,17.94a35.78,35.78,0,0,0-56.31-7.45L18,44.39C-5.63,68.05-6,111.34,17,166.27,39,219.08,80.26,277.23,133,330s110.9,94,163.72,116.06c27,11.31,51.26,17,71.7,17,21.09,0,38.16-6,50.18-18l33.9-33.9a35.55,35.55,0,0,0,10.17-30ZM323.36,302l114.23,65.77a20.78,20.78,0,0,1,6.35,30.35L292.13,311.48l6.17-6.16A20.8,20.8,0,0,1,323.36,302ZM80,15.19A20.6,20.6,0,0,1,95.24,25.42L161,139.65a20.81,20.81,0,0,1-3.32,25.06L152,170.38,64.92,19.07A20.58,20.58,0,0,1,77.18,15a21.76,21.76,0,0,1,2.78.19ZM408,434.38c-18.8,18.79-57.24,18-105.48-2.17C251.47,410.86,195,370.79,143.63,319.38S52.15,211.54,30.8,160.48C10.62,112.24,9.84,73.8,28.63,55L53.8,29.83l87.25,151.53-5.86,5.85a31.48,31.48,0,0,0-2.31,42,663.25,663.25,0,0,0,47.77,53.11,663.25,663.25,0,0,0,53.11,47.77,31.47,31.47,0,0,0,42-2.32l5.33-5.33,152,86.75L408,434.38Z"/></g></g></svg>