<?xml version="1.0" encoding="utf-8"?>
<!-- Generator: Adobe Illustrator 24.0.2, SVG Export Plug-In . SVG Version: 6.00 Build 0)  -->
<svg version="1.1" id="Слой_1" xmlns="http://www.w3.org/2000/svg" xmlns:xlink="http://www.w3.org/1999/xlink" x="0px" y="0px"
	 viewBox="0 0 463 463" style="enable-background:new 0 0 463 463;" xml:space="preserve">
<style type="text/css">
	.st0{fill:#FF5600;}
</style>
<title>Телефон</title>
<g id="Слой_2_1_">
	<g id="Слой_1-2">
		<path class="st0" d="M462.7,381.1c-1.4-11.1-7.9-20.8-17.6-26.3L330.9,289c-14-8.1-31.7-5.7-43.2,5.7l-22.5,22.5
			c-5.9,6-15.4,6.5-22,1.2c-18.1-14.6-35.5-30.2-51.9-46.7c-16.5-16.4-32.1-33.8-46.7-51.9c-5.3-6.6-4.7-16.1,1.2-22l22.5-22.5
			c11.4-11.5,13.7-29.2,5.7-43.2L108.2,17.9C98.4,0.8,76.5-5.1,59.4,4.8c-2.7,1.6-5.2,3.5-7.5,5.7L18,44.4
			c-23.6,23.7-24,66.9-1,121.9c22,52.8,63.3,111,116,163.7s110.9,94,163.7,116.1c27,11.3,51.3,17,71.7,17c21.1,0,38.2-6,50.2-18
			l33.9-33.9C460.4,403.3,464.2,392.2,462.7,381.1L462.7,381.1z M323.4,302l114.2,65.8c9.9,5.7,13.4,18.4,7.6,28.4
			c-0.4,0.7-0.8,1.3-1.3,2l-151.8-86.6l6.2-6.2C304.9,298.7,315.2,297.3,323.4,302z M80,15.2c6.4,0.8,12,4.6,15.2,10.2L161,139.6
			c4.7,8.1,3.3,18.4-3.3,25.1l-5.7,5.7L64.9,19.1c3.5-2.6,7.8-4.1,12.3-4.1C78.1,15,79,15.1,80,15.2L80,15.2z M408,434.4
			c-18.8,18.8-57.2,18-105.5-2.2c-51-21.4-107.5-61.4-158.9-112.8S52.2,211.5,30.8,160.5C10.6,112.2,9.8,73.8,28.6,55l25.2-25.2
			l87.3,151.5l-5.9,5.9c-11.4,11.4-12.4,29.5-2.3,42c15,18.5,30.9,36.3,47.8,53.1c16.8,16.9,34.6,32.8,53.1,47.8
			c12.5,10.1,30.6,9.1,42-2.3l5.3-5.3l152,86.8L408,434.4z"/>
	</g>
</g>
</svg>
