<svg xmlns="http://www.w3.org/2000/svg" viewBox="0 0 60 60"><defs><style>.cls-1{fill:#191919;}</style></defs><title>Ресурс 1</title><g id="Слой_2" data-name="Слой 2"><g id="Capa_1" data-name="Capa 1"><path class="cls-1" d="M30,26a7,7,0,1,0-7-7A7,7,0,0,0,30,26Zm0-12a5,5,0,1,1-5,5A5,5,0,0,1,30,14Z"/><path class="cls-1" d="M29.8,54.8,45.1,32.6c5.8-7.7,4.9-20.3-1.8-27A18.82,18.82,0,0,0,29.8,0,19.4,19.4,0,0,0,16.2,5.6c-6.7,6.7-7.5,19.3-1.8,27ZM17.7,7A17.19,17.19,0,0,1,29.8,2,17.6,17.6,0,0,1,42,7c6,6,6.8,17.4,1.6,24.4L29.8,51.2,16.1,31.4C10.9,24.5,11.6,13.1,17.7,7Z"/><path class="cls-1" d="M42.1,43a1,1,0,0,0-1.1.9.94.94,0,0,0,.9,1.1C52.4,46.2,58,49.6,58,51.5,58,54.2,47.3,58,30,58S2,54.2,2,51.5c0-1.9,5.6-5.3,16.1-6.5a1,1,0,0,0-.2-2C7.4,44.2,0,47.7,0,51.5,0,55.7,10.3,60,30,60s30-4.3,30-8.5C60,47.7,52.6,44.2,42.1,43Z"/></g></g></svg>